<svg xmlns="http://www.w3.org/2000/svg" xmlns:xlink="http://www.w3.org/1999/xlink" viewBox="0 0 1283.86 144.13"><defs><style>.a,.b,.c,.d,.e,.f,.h,.j{stroke:#000;}.a,.b,.c,.d,.e,.f,.g,.h,.j{stroke-miterlimit:10;}.a{fill:url(#a);}.b{fill:url(#b);}.d{fill:url(#c);}.e{fill:url(#d);}.f{fill:url(#e);}.g{stroke:#010100;}.h{stroke-width:0.75px;}.i{font-size:74px;}.i,.j{font-family:Arial-BoldMT, Arial;font-weight:700;}.j{font-size:27px;fill:#dc2626;stroke-width:0.5px;letter-spacing:0.16em;}</style><radialGradient id="a" cx="19.38" cy="117.87" r="22.54" gradientUnits="userSpaceOnUse"><stop offset="0.18" stop-color="#dc2626"/><stop offset="0.53" stop-color="#dd2825"/><stop offset="0.67" stop-color="#df2f22"/><stop offset="0.78" stop-color="#e43b1d"/><stop offset="0.87" stop-color="#eb4d17"/><stop offset="0.93" stop-color="#f2600f"/></radialGradient><radialGradient id="b" cx="109.46" cy="109.86" r="39.98" gradientUnits="userSpaceOnUse"><stop offset="0.01" stop-color="#dc2626"/><stop offset="0.29" stop-color="#dd2925"/><stop offset="0.5" stop-color="#e13221"/><stop offset="0.67" stop-color="#e7421b"/><stop offset="0.84" stop-color="#ef5812"/><stop offset="0.89" stop-color="#f2600f"/></radialGradient><linearGradient id="c" x1="97.06" y1="11.08" x2="95.75" y2="-2.52" gradientUnits="userSpaceOnUse"><stop offset="0.01" stop-color="#dc2626"/><stop offset="0.09" stop-color="#e43b1e"/><stop offset="0.18" stop-color="#ea4c17"/><stop offset="0.29" stop-color="#ef5712"/><stop offset="0.45" stop-color="#f15e10"/><stop offset="0.89" stop-color="#f2600f"/></linearGradient><linearGradient id="d" x1="73.17" y1="99.81" x2="73.17" y2="11.78" xlink:href="#b"/><linearGradient id="e" x1="51.08" y1="89.28" x2="51.61" y2="56.43" gradientUnits="userSpaceOnUse"><stop offset="0.18" stop-color="#dc2626"/><stop offset="0.71" stop-color="#eb4f16"/><stop offset="1" stop-color="#f2600f"/></linearGradient></defs><path class="a" d="M.42,141.3c.69-.7,37.92-40,37.92-40l-6.56-6.83Z"/><polygon class="b" points="74.86 142.8 155.41 76.92 63.5 104.35 82.76 110.49 74.86 142.8"/><polygon class="c" points="149.03 85.39 156.42 78.42 201.72 140.18 149.03 85.39"/><polygon class="c" points="126.72 44.54 127.56 82.26 144.84 77.31 144.84 58.21 126.72 44.54"/><polygon class="c" points="123.52 83.3 123.52 15.27 105.95 1.05 105.95 88.04 123.52 83.3"/><polygon class="d" points="103.44 22.52 103.44 1.05 89.78 11.78 103.44 22.52"/><polygon class="c" points="85.87 94.45 102.6 89.43 102.6 27.68 85.87 13.32 85.87 94.45"/><polygon class="e" points="64.42 99.81 81.92 94.87 81.92 11.78 64.42 25.32 64.42 99.81"/><polygon class="f" points="61.18 100.51 61.18 43.38 41.29 58.76 41.29 92.47 61.18 100.51"/><rect class="c" x="140.52" y="103.38" width="6.48" height="6.48"/><rect class="c" x="149.03" y="103.38" width="6.48" height="6.48"/><rect class="c" x="149.03" y="112.47" width="6.48" height="6.48"/><path class="g" d="M140.52,112.47v4.29a3.42,3.42,0,0,1,2.18,1.51,2.57,2.57,0,0,1,.3.68h4v-6.48Z"/><rect class="h" x="32.2" y="113.13" width="4.46" height="4.46"/><rect class="h" x="38.34" y="113.13" width="4.46" height="4.46"/><rect class="h" x="32.2" y="118.95" width="4.46" height="4.46"/><rect class="h" x="38.34" y="118.95" width="4.46" height="4.46"/><polygon class="c" points="74.44 142.41 82.11 111.04 35.97 93.2 74.44 142.41"/><text class="i" transform="translate(222.14 86.46)">Prime Line Concrete Plus</text><text class="j" transform="translate(228.14 124.74)">LOAD BEARING CONCRETE HOLLOW BLOCKS</text></svg>