<?xml version="1.0" encoding="utf-8"?>
<!-- Generator: Adobe Illustrator 25.0.0, SVG Export Plug-In . SVG Version: 6.00 Build 0)  -->
<svg version="1.1" id="Layer_1" xmlns="http://www.w3.org/2000/svg" xmlns:xlink="http://www.w3.org/1999/xlink" x="0px" y="0px"
	 viewBox="0 0 359.8 52" style="enable-background:new 0 0 359.8 52;" xml:space="preserve">
<style type="text/css">
	.st0{fill:#F59E0B;}
	.st1{fill:#DC2626;}
	.st2{fill:#010100;}
	.st3{fill:#D1D5DB;}
</style>
<g id="SvgjsG1516_2_" transform="matrix(1.6405737602323078,0,0,1.6405737602323078,-2.624918055486019,-8.530984804866447)">
	<path class="st2" d="M9.7,16.1c-0.5,0-1.4,0.1-1.4-0.7c0-0.8,0.9-0.7,1.4-0.7c0.9,0,0.9-1.3,0-1.3H7.3c-0.9,0-0.9-1.3,0-1.3h2.4
		C12.4,12.1,12.4,16.1,9.7,16.1L9.7,16.1z M5.3,23.5c0,0.9-1.3,0.9-1.3,0V10.2c0-0.4,0.3-0.7,0.7-0.7h5.3c6.1,0,6,9.3,0,9.3H8v4.7
		c0,0.9-1.4,0.9-1.4,0v-5.3c0-0.4,0.3-0.7,0.7-0.7h2.6c4.3,0,4.3-6.7,0-6.7H5.3L5.3,23.5C5.3,23.5,5.3,23.5,5.3,23.5z M22.4,16.1
		c-0.2,0-0.4,0-0.7,0c-1-0.1-1.1-1.3,0-1.3c0.6,0,1.4,0.1,1.4-0.7c0-0.4-0.3-0.7-0.7-0.7h-2.4c-0.9,0-0.9-1.3,0-1.3h2.4
		c1.2,0,2,1,2,2C24.5,15.3,23.5,16.1,22.4,16.1C22.4,16.1,22.4,16.1,22.4,16.1z M23.7,23.1c0.5,0.7-0.6,1.5-1.1,0.8l-1.8-2.7v2.3
		c0,0.9-1.3,0.9-1.3,0v-4.4c0-0.7,0.8-0.9,1.2-0.4L23.7,23.1C23.7,23.1,23.7,23.1,23.7,23.1z M18.1,23.5c0,0.9-1.3,0.9-1.3,0V10.1
		c0-0.4,0.3-0.7,0.7-0.7h5.3c4.1,0,6.2,5,3.3,8c-0.6,0.6-1.3,1-2.1,1.2l3.1,4.4c0.5,0.7-0.6,1.5-1.1,0.8l-3.7-5.3
		c-0.4-0.5,0-1.1,0.5-1.1c2.9,0,4.4-3.6,2.3-5.7c-0.6-0.6-1.4-1-2.3-1h-4.6V23.5L18.1,23.5z M33.2,23.5c0,0.4-0.3,0.7-0.7,0.7
		c-0.4,0-0.7-0.3-0.7-0.7V10.1c0-0.4,0.3-0.7,0.7-0.7c0.4,0,0.7,0.3,0.7,0.7V23.5L33.2,23.5z M30.5,23.5c0,0.4-0.3,0.7-0.7,0.7
		c-0.4,0-0.7-0.3-0.7-0.7V10.1c0-0.4,0.3-0.7,0.7-0.7c0.4,0,0.7,0.3,0.7,0.7V23.5L30.5,23.5z M48.5,23.5c0,0.4-0.3,0.7-0.7,0.7
		s-0.7-0.3-0.7-0.7v-6.3l-2.7,3.9c-0.2,0.3-0.7,0.4-1,0.2c-0.1-0.1-0.1-0.1-0.2-0.2l-2.7-3.9v6.3c0,0.4-0.3,0.7-0.7,0.7
		c-0.4,0-0.7-0.3-0.7-0.7V15l0,0c0-0.2,0.1-0.4,0.3-0.5c0.3-0.2,0.7-0.1,1,0.2l3.4,4.9l3.4-4.9c0.1-0.2,0.3-0.3,0.6-0.3
		c0.4,0,0.7,0.3,0.7,0.7L48.5,23.5C48.5,23.5,48.5,23.5,48.5,23.5z M37.8,23.5c0,0.4-0.3,0.7-0.7,0.7s-0.7-0.3-0.7-0.7V9.9
		c0-0.4,0.3-0.7,0.7-0.7s0.7,0.3,0.7,0.7V23.5L37.8,23.5z M51.2,23.5c0,0.4-0.3,0.7-0.7,0.7c-0.4,0-0.7-0.3-0.7-0.7V9.9
		c0-0.4,0.3-0.7,0.7-0.7c0.4,0,0.7,0.3,0.7,0.7V23.5L51.2,23.5z M47.5,9.5c0.2-0.3,0.6-0.4,1-0.2c0.3,0.2,0.4,0.6,0.2,0.9l-4.2,6.1
		c-0.2,0.3-0.7,0.4-1,0.2c-0.1,0-0.1-0.1-0.2-0.2L39,10.3c-0.2-0.3-0.1-0.7,0.2-0.9s0.7-0.1,1,0.2l3.7,5.3L47.5,9.5
		C47.5,9.5,47.5,9.5,47.5,9.5z M62,12.1c0.4,0,0.7,0.3,0.7,0.7c0,0.4-0.3,0.7-0.7,0.7h-3.6v1.3h2.3c0.4,0,0.7,0.3,0.7,0.7
		c0,0.4-0.3,0.7-0.7,0.7h-3c-0.4,0-0.7-0.3-0.7-0.7v-2.7c0-0.4,0.3-0.7,0.7-0.7H62C62,12.1,62,12.1,62,12.1z M60.8,17.5
		c0.4,0,0.7,0.3,0.7,0.7c0,0.4-0.3,0.7-0.7,0.7h-2.3v1.3H62c0.4,0,0.7,0.3,0.7,0.7c0,0.4-0.3,0.7-0.7,0.7h-4.2
		c-0.4,0-0.7-0.3-0.7-0.7v-2.7c0-0.4,0.3-0.7,0.7-0.7H60.8C60.8,17.5,60.8,17.5,60.8,17.5z M62,22.8c0.4,0,0.7,0.3,0.7,0.7
		c0,0.4-0.3,0.7-0.7,0.7h-6.9c-0.4,0-0.7-0.3-0.7-0.7V10.1c0-0.4,0.3-0.7,0.7-0.7H62c0.4,0,0.7,0.3,0.7,0.7c0,0.4-0.3,0.7-0.7,0.7
		h-6.2v12H62C62,22.8,62,22.8,62,22.8z M73.8,22.8c0.4,0,0.7,0.3,0.7,0.7c0,0.4-0.3,0.7-0.7,0.7H66c-0.4,0-0.7-0.3-0.7-0.7V10.1
		c0-0.4,0.3-0.7,0.7-0.7c0.4,0,0.7,0.3,0.7,0.7v12.7H73.8L73.8,22.8L73.8,22.8z M68,10.1c0-0.4,0.3-0.7,0.7-0.7
		c0.4,0,0.7,0.3,0.7,0.7v10h4.4c0.4,0,0.7,0.3,0.7,0.7c0,0.4-0.3,0.7-0.7,0.7h-5.1c-0.4,0-0.7-0.3-0.7-0.7V10.1
		C68,10.1,68,10.1,68,10.1z M81,23.5c0,0.4-0.3,0.7-0.7,0.7c-0.4,0-0.7-0.3-0.7-0.7V10.1c0-0.4,0.3-0.7,0.7-0.7
		c0.4,0,0.7,0.3,0.7,0.7V23.5L81,23.5z M78.3,23.5c0,0.4-0.3,0.7-0.7,0.7c-0.4,0-0.7-0.3-0.7-0.7V10.1c0-0.4,0.3-0.7,0.7-0.7
		c0.4,0,0.7,0.3,0.7,0.7V23.5L78.3,23.5z M85.5,23.5c0,0.4-0.3,0.7-0.7,0.7c-0.4,0-0.7-0.3-0.7-0.7V10.1c0-0.4,0.3-0.6,0.7-0.6
		c0.4,0,0.7,0.3,0.7,0.6V23.5L85.5,23.5z M96.4,23.5c0,0.4-0.3,0.7-0.7,0.7c-0.4,0-0.7-0.3-0.7-0.7V10.1c0-0.4,0.3-0.6,0.7-0.6
		c0.4,0,0.7,0.3,0.7,0.6V23.5L96.4,23.5z M93.9,23.1c0.2,0.3,0.1,0.7-0.2,0.9c-0.3,0.2-0.7,0.1-0.9-0.2l-4.6-6.6v6.2
		c0,0.4-0.3,0.7-0.7,0.7c-0.4,0-0.6-0.3-0.6-0.7v-8.3c0-0.2,0.1-0.4,0.3-0.5c0.3-0.2,0.7-0.2,0.9,0.2L93.9,23.1L93.9,23.1L93.9,23.1
		z M86.7,10.5c-0.2-0.3-0.1-0.7,0.2-0.9c0.3-0.2,0.7-0.1,0.9,0.2l4.6,6.6v-6.2c0-0.4,0.3-0.6,0.7-0.6s0.7,0.3,0.7,0.6v8.3
		c0,0.2-0.1,0.4-0.3,0.6c-0.3,0.2-0.7,0.1-0.9-0.2L86.7,10.5C86.7,10.5,86.7,10.5,86.7,10.5z M107.2,12.1c0.4,0,0.7,0.3,0.7,0.7
		c0,0.4-0.3,0.7-0.7,0.7h-3.6v1.3h2.3c0.4,0,0.7,0.3,0.7,0.7c0,0.4-0.3,0.7-0.7,0.7h-3c-0.4,0-0.7-0.3-0.7-0.7v-2.7
		c0-0.4,0.3-0.7,0.7-0.7H107.2L107.2,12.1L107.2,12.1z M106,17.5c0.4,0,0.7,0.3,0.7,0.7c0,0.4-0.3,0.7-0.7,0.7h-2.3v1.3h3.6
		c0.4,0,0.7,0.3,0.7,0.7c0,0.4-0.3,0.7-0.7,0.7H103c-0.4,0-0.7-0.3-0.7-0.7v-2.7c0-0.4,0.3-0.7,0.7-0.7H106L106,17.5L106,17.5z
		 M107.2,22.8c0.4,0,0.7,0.3,0.7,0.7c0,0.4-0.3,0.7-0.7,0.7h-6.9c-0.4,0-0.7-0.3-0.7-0.7V10.1c0-0.4,0.3-0.7,0.7-0.7h6.9
		c0.4,0,0.7,0.3,0.7,0.7c0,0.4-0.3,0.7-0.7,0.7H101v12H107.2L107.2,22.8z M126.1,9.8c0.8,0.3,0.3,1.6-0.5,1.2
		c-0.8-0.3-1.6-0.5-2.5-0.5c-3.6,0-6.2,2.7-6.2,6.2c0,3.1,2.1,6.2,6.2,6.2c0.9,0,1.7-0.2,2.4-0.5c0.8-0.3,1.3,0.9,0.5,1.2
		c-0.9,0.4-1.9,0.6-3,0.6c-5,0-7.5-3.7-7.5-7.5c0-3.8,2.5-7.6,7.5-7.6C124.2,9.2,125.2,9.4,126.1,9.8L126.1,9.8L126.1,9.8z
		 M125.2,19.7c0.8-0.4,1.4,0.7,0.6,1.2c-0.9,0.5-1.8,0.7-2.7,0.7c-2.4,0-4.6-1.8-4.6-4.8c0-4.1,4.1-5.9,7.3-4.1
		c0.8,0.4,0.1,1.6-0.6,1.1c-2.3-1.3-5.4-0.1-5.4,3c0,2.2,1.5,3.4,3.3,3.5C123.8,20.2,124.5,20.1,125.2,19.7L125.2,19.7L125.2,19.7z
		 M143.3,14.5c0.1,0.4-0.1,0.7-0.4,0.8c-0.4,0.1-0.8-0.1-0.9-0.4c-0.4-1.3-1.2-2.4-2.3-3.2c-1-0.7-2.3-1.2-3.8-1.2
		c-8.3,0-8.3,12.5,0,12.5c1.4,0,2.7-0.4,3.8-1.2c1.1-0.8,1.9-1.9,2.3-3.2c0.1-0.4,0.5-0.5,0.9-0.4s0.5,0.5,0.4,0.9
		c-0.5,1.6-1.5,2.9-2.8,3.9c-1.3,0.9-2.9,1.5-4.6,1.5c-10.1,0-10.1-15.3,0-15.3c1.7,0,3.3,0.5,4.6,1.5
		C141.8,11.6,142.8,12.9,143.3,14.5C143.3,14.5,143.3,14.5,143.3,14.5z M131.8,19.2c-0.2-0.3-0.1-0.7,0.2-0.9
		c0.3-0.2,0.7-0.1,0.9,0.3c0.3,0.5,0.8,1,1.3,1.3c0.5,0.3,1.1,0.5,1.7,0.5c1,0,1.8-0.4,2.4-1c0.6-0.6,1-1.5,1-2.5c0-1-0.4-1.8-1-2.5
		c-0.6-0.6-1.5-1-2.4-1c-0.6,0-1.2,0.2-1.7,0.5c-0.5,0.3-1,0.7-1.3,1.3c-0.2,0.3-0.6,0.5-0.9,0.3c-0.3-0.2-0.4-0.6-0.2-0.9
		c0.4-0.7,1-1.4,1.7-1.8s1.5-0.6,2.4-0.6c1.3,0,2.5,0.5,3.4,1.4c0.8,0.9,1.4,2.1,1.4,3.4s-0.5,2.5-1.4,3.4c-0.9,0.9-2.1,1.4-3.4,1.4
		c-0.8,0-1.7-0.2-2.4-0.6C132.8,20.6,132.2,19.9,131.8,19.2C131.8,19.2,131.8,19.2,131.8,19.2z M147.3,23.5c0,0.4-0.3,0.7-0.7,0.7
		c-0.4,0-0.7-0.3-0.7-0.7V10.1c0-0.4,0.3-0.6,0.7-0.6c0.4,0,0.7,0.3,0.7,0.6V23.5L147.3,23.5z M158.3,23.5c0,0.4-0.3,0.7-0.7,0.7
		c-0.4,0-0.7-0.3-0.7-0.7V10.1c0-0.4,0.3-0.6,0.7-0.6c0.4,0,0.7,0.3,0.7,0.6V23.5L158.3,23.5z M155.7,23.1c0.2,0.3,0.1,0.7-0.2,0.9
		c-0.3,0.2-0.7,0.1-0.9-0.2l-4.6-6.6v6.2c0,0.4-0.3,0.7-0.7,0.7c-0.4,0-0.6-0.3-0.6-0.7v-8.3c0-0.2,0.1-0.4,0.3-0.5
		c0.3-0.2,0.7-0.2,0.9,0.2L155.7,23.1L155.7,23.1z M148.6,10.5c-0.2-0.3-0.1-0.7,0.2-0.9c0.3-0.2,0.7-0.1,0.9,0.2l4.6,6.6v-6.2
		c0-0.4,0.3-0.6,0.7-0.6s0.7,0.3,0.7,0.6v8.3c0,0.2-0.1,0.4-0.3,0.6c-0.3,0.2-0.7,0.1-0.9-0.2L148.6,10.5
		C148.6,10.5,148.6,10.5,148.6,10.5z M171.3,9.8c0.8,0.3,0.3,1.6-0.5,1.2c-0.8-0.3-1.6-0.5-2.5-0.5c-3.6,0-6.2,2.7-6.2,6.2
		c0,3.1,2.1,6.2,6.2,6.2c0.9,0,1.7-0.2,2.4-0.5c0.8-0.3,1.3,0.9,0.5,1.2c-0.9,0.4-1.9,0.6-3,0.6c-5,0-7.5-3.7-7.5-7.5
		c0-3.8,2.5-7.6,7.5-7.6C169.4,9.2,170.4,9.4,171.3,9.8C171.3,9.8,171.3,9.8,171.3,9.8z M170.4,19.7c0.8-0.4,1.4,0.7,0.6,1.2
		c-0.9,0.5-1.8,0.7-2.7,0.7c-2.4,0-4.6-1.8-4.6-4.8c0-4.1,4.1-5.9,7.3-4.1c0.8,0.4,0.1,1.6-0.6,1.1c-2.3-1.3-5.4-0.1-5.4,3
		c0,2.2,1.5,3.4,3.3,3.5C169,20.2,169.7,20.1,170.4,19.7L170.4,19.7L170.4,19.7z M179.7,16.1c-0.2,0-0.4,0-0.7,0
		c-1-0.1-1.1-1.3,0-1.3c0.6,0,1.4,0.1,1.4-0.7c0-0.4-0.3-0.7-0.7-0.7h-2.4c-0.9,0-0.9-1.3,0-1.3h2.4c1.2,0,2,1,2,2
		C181.8,15.3,180.8,16.1,179.7,16.1L179.7,16.1z M181,23.1c0.5,0.7-0.6,1.5-1.1,0.8l-1.8-2.7v2.3c0,0.9-1.3,0.9-1.3,0v-4.4
		c0-0.7,0.8-0.9,1.2-0.4L181,23.1L181,23.1z M175.4,23.5c0,0.9-1.3,0.9-1.3,0V10.1c0-0.4,0.3-0.7,0.7-0.7h5.3c4.1,0,6.2,5,3.3,8
		c-0.6,0.6-1.3,1-2.1,1.2l3.1,4.4c0.5,0.7-0.6,1.5-1.1,0.8l-3.7-5.3c-0.4-0.5,0-1.1,0.5-1.1c2.9,0,4.4-3.6,2.3-5.7
		c-0.6-0.6-1.4-1-2.3-1h-4.6L175.4,23.5L175.4,23.5L175.4,23.5z M194.1,12.1c0.4,0,0.7,0.3,0.7,0.7c0,0.4-0.3,0.7-0.7,0.7h-3.6v1.3
		h2.3c0.4,0,0.7,0.3,0.7,0.7c0,0.4-0.3,0.7-0.7,0.7h-3c-0.4,0-0.7-0.3-0.7-0.7v-2.7c0-0.4,0.3-0.7,0.7-0.7H194.1L194.1,12.1z
		 M192.8,17.5c0.4,0,0.7,0.3,0.7,0.7c0,0.4-0.3,0.7-0.7,0.7h-2.3v1.3h3.6c0.4,0,0.7,0.3,0.7,0.7c0,0.4-0.3,0.7-0.7,0.7h-4.2
		c-0.4,0-0.7-0.3-0.7-0.7v-2.7c0-0.4,0.3-0.7,0.7-0.7H192.8L192.8,17.5z M194.1,22.8c0.4,0,0.7,0.3,0.7,0.7c0,0.4-0.3,0.7-0.7,0.7
		h-6.9c-0.4,0-0.7-0.3-0.7-0.7V10.1c0-0.4,0.3-0.7,0.7-0.7h6.9c0.4,0,0.7,0.3,0.7,0.7c0,0.4-0.3,0.7-0.7,0.7h-6.2v12H194.1
		L194.1,22.8z M206.3,12.1c0.4,0,0.6,0.3,0.6,0.7c0,0.4-0.3,0.6-0.6,0.6h-2.7v10c0,0.4-0.3,0.7-0.7,0.7c-0.4,0-0.7-0.3-0.7-0.7V12.8
		c0-0.4,0.3-0.7,0.7-0.7H206.3L206.3,12.1L206.3,12.1z M196.9,10.8c-0.4,0-0.7-0.3-0.7-0.7c0-0.4,0.3-0.7,0.7-0.7h9.3
		c0.4,0,0.6,0.3,0.6,0.7c0,0.4-0.3,0.7-0.6,0.7H196.9L196.9,10.8z M196.9,13.5c-0.4,0-0.7-0.3-0.7-0.6c0-0.4,0.3-0.7,0.7-0.7h3.3
		c0.4,0,0.7,0.3,0.7,0.7v10.7c0,0.4-0.3,0.7-0.7,0.7c-0.4,0-0.7-0.3-0.7-0.7v-10H196.9L196.9,13.5L196.9,13.5z M216.6,12.1
		c0.4,0,0.7,0.3,0.7,0.7c0,0.4-0.3,0.7-0.7,0.7h-3.6v1.3h2.3c0.4,0,0.7,0.3,0.7,0.7c0,0.4-0.3,0.7-0.7,0.7h-3
		c-0.4,0-0.7-0.3-0.7-0.7v-2.7c0-0.4,0.3-0.7,0.7-0.7H216.6L216.6,12.1z M215.4,17.5c0.4,0,0.7,0.3,0.7,0.7c0,0.4-0.3,0.7-0.7,0.7
		h-2.3v1.3h3.6c0.4,0,0.7,0.3,0.7,0.7c0,0.4-0.3,0.7-0.7,0.7h-4.2c-0.4,0-0.7-0.3-0.7-0.7v-2.7c0-0.4,0.3-0.7,0.7-0.7H215.4
		L215.4,17.5z M216.6,22.8c0.4,0,0.7,0.3,0.7,0.7c0,0.4-0.3,0.7-0.7,0.7h-6.9c-0.4,0-0.7-0.3-0.7-0.7V10.1c0-0.4,0.3-0.7,0.7-0.7
		h6.9c0.4,0,0.7,0.3,0.7,0.7c0,0.4-0.3,0.7-0.7,0.7h-6.2v12H216.6L216.6,22.8z"/>
</g>
<g id="SvgjsG1517_2_" transform="matrix(0.3407238753841067,0,0,0.3407238753841067,116.40032582010356,33.132833318866105)">
	<path class="st2" d="M17.5,25c1.5,0,2.7,0.3,3.5,1c0.8,0.7,1.3,1.6,1.3,2.9c0,1.2-0.4,2.2-1.2,2.9s-1.9,1-3.3,1h-2.9v6.4h-1.7V25
		C13.2,25,17.5,25,17.5,25z M17.8,31.2c0.9,0,1.5-0.2,2-0.6c0.5-0.4,0.7-1,0.7-1.7s-0.2-1.3-0.7-1.7c-0.5-0.4-1.2-0.6-2-0.6h-2.9
		v4.7C14.9,31.2,17.8,31.2,17.8,31.2z M43.8,25v12.6h6.5v1.6h-8.2V25H43.8z M70.8,25v8.5c0,1.4,0.3,2.5,0.9,3.3
		c0.6,0.7,1.5,1.1,2.7,1.2c1.2,0,2.1-0.4,2.7-1.1c0.6-0.8,0.9-1.8,0.9-3.2V25h1.7v8.8c0,1.8-0.5,3.2-1.4,4.2s-2.2,1.5-3.9,1.5
		c-1.7,0-3-0.5-3.9-1.5c-0.9-1-1.4-2.4-1.4-4.2V25H70.8z M104.4,24.6c1.7,0,3,0.6,4,1.7l-1.4,1.2c-0.5-0.8-1.4-1.3-2.6-1.3
		c-0.9,0-1.6,0.2-2.2,0.6s-0.8,1-0.8,1.7c0,0.6,0.2,1.1,0.6,1.5c0.4,0.4,1.2,0.7,2.4,1.1c1.5,0.4,2.6,1,3.2,1.6
		c0.6,0.6,0.9,1.5,0.9,2.6c0,1.3-0.5,2.3-1.4,3c-0.9,0.7-2.1,1.1-3.6,1.1c-1,0-1.8-0.2-2.6-0.5c-0.8-0.3-1.3-0.8-1.8-1.4l1.4-1.2
		c0.3,0.5,0.7,0.9,1.3,1.2c0.5,0.3,1.1,0.4,1.7,0.4c0.8,0,1.6-0.2,2.2-0.7c0.6-0.5,0.9-1.1,0.9-1.8c0-0.6-0.2-1.1-0.5-1.5
		c-0.4-0.4-0.9-0.7-1.8-0.9l-1.6-0.5c-1.2-0.4-2.1-0.9-2.6-1.5c-0.5-0.6-0.8-1.4-0.8-2.3c0-1.2,0.4-2.2,1.3-2.9
		C101.8,25,103,24.6,104.4,24.6z M157.4,24.6c1.1,0,2.1,0.2,2.9,0.6s1.5,0.9,2.1,1.6l-1.5,1.1c-0.4-0.6-1-1-1.6-1.3
		c-0.6-0.3-1.3-0.4-2-0.4c-1.5,0-2.8,0.6-3.8,1.7S152,30.4,152,32c0,1.7,0.5,3.1,1.5,4.2c1,1.1,2.3,1.7,3.9,1.7c1.7,0,3.1-0.7,4.1-2
		l1.3,1.1c-1.2,1.7-3,2.5-5.4,2.5c-2.1,0-3.8-0.7-5.1-2.1s-2-3.2-2.1-5.3c0-2.1,0.7-3.9,2.1-5.3C153.6,25.3,155.3,24.6,157.4,24.6
		L157.4,24.6z M188.7,24.6c2.1,0,3.9,0.7,5.3,2.1c1.4,1.4,2.1,3.2,2.1,5.3c0,2.2-0.7,4-2.1,5.4c-1.4,1.4-3.2,2.1-5.3,2.1
		c-2.1,0-3.9-0.7-5.3-2.1c-1.4-1.4-2.1-3.2-2.1-5.3c0-2.1,0.7-3.9,2.1-5.3C184.8,25.3,186.6,24.6,188.7,24.6z M183.1,32
		c0,1.7,0.5,3.1,1.6,4.2c1.1,1.1,2.4,1.7,4,1.7c1.6,0,2.9-0.6,4-1.7c1.1-1.1,1.6-2.5,1.6-4.2c0-1.6-0.5-3-1.6-4.1
		c-1-1.1-2.4-1.7-4.1-1.7c-1.6,0-3,0.6-4,1.7S183.1,30.4,183.1,32z M218.4,25l4.8,11.1h0L228,25h2.4v14.2h-1.7V27.2h0l-5.1,11.9h-1
		l-5.1-11.9h0v11.9h-1.7V25C215.9,25,218.4,25,218.4,25z M255.3,25c1.5,0,2.7,0.3,3.6,1c0.8,0.7,1.3,1.6,1.3,2.9
		c0,1.2-0.4,2.2-1.2,2.9c-0.8,0.7-1.9,1-3.3,1h-2.9v6.4H251V25H255.3z M255.6,31.2c0.9,0,1.5-0.2,2-0.6c0.5-0.4,0.7-1,0.7-1.7
		s-0.2-1.3-0.7-1.7s-1.2-0.6-2-0.6h-2.9v4.7C252.7,31.2,255.6,31.2,255.6,31.2z M286.1,25l6,14.2h-2l-1.4-3.5h-7.1l-1.5,3.5h-1.9
		l6.2-14.2H286.1z M285.3,27.1l-2.9,7h5.8L285.3,27.1L285.3,27.1z M313.2,25l8.2,11.8h0V25h1.7v14.2H321l-8.2-11.8h0v11.8h-1.7V25
		H313.2z M343.9,25l4,6.4l4.1-6.4h2l-5.3,8.1v6.1H347V33l-5.3-8.1L343.9,25L343.9,25z"/>
</g>
</svg>
